<?xml version="1.0" encoding="UTF-8"?>
<svg version="1.1" xmlns="http://www.w3.org/2000/svg" width="512" height="512">
<path d="M0 0 C1.69616268 -0.00576172 1.69616268 -0.00576172 3.42659128 -0.01163983 C4.66402853 -0.01077335 5.90146579 -0.00990687 7.17640114 -0.00901413 C8.49472171 -0.01198525 9.81304229 -0.01495637 11.17131197 -0.01801753 C14.82921318 -0.02607692 18.48709476 -0.02787651 22.1450038 -0.028615 C26.09055894 -0.03046735 30.03610394 -0.0380155 33.98165321 -0.04475021 C42.6075837 -0.05832551 51.23350952 -0.06435672 59.85944891 -0.06876087 C65.24513631 -0.07152409 70.63082192 -0.07576153 76.0165081 -0.08026505 C90.92759971 -0.09245559 105.83868989 -0.10275603 120.74978638 -0.10614014 C121.70388827 -0.1063597 122.65799017 -0.10657927 123.64100424 -0.10680549 C124.59738373 -0.10702377 125.55376321 -0.10724204 126.53912389 -0.10746694 C128.47710506 -0.1079104 130.41508623 -0.10835697 132.3530674 -0.10880661 C133.79502473 -0.10913875 133.79502473 -0.10913875 135.26611252 -0.10947761 C150.8486493 -0.11342709 166.43113936 -0.13088664 182.01365809 -0.15416613 C198.0114376 -0.1778732 214.00919366 -0.19034166 230.00699103 -0.19150805 C238.9894653 -0.19242506 247.97187866 -0.19818409 256.95433617 -0.21632767 C264.60151393 -0.23171979 272.24861194 -0.23685429 279.89580224 -0.22858956 C283.79742768 -0.22468019 287.69889248 -0.22562664 291.6004982 -0.23964691 C295.17330886 -0.25236834 298.74583788 -0.25120399 302.31864806 -0.2390562 C304.22101944 -0.23616876 306.12339562 -0.2480482 308.02572858 -0.26047826 C316.68031364 -0.21027329 322.92555374 0.87097951 329.35990334 7.13142776 C335.67850063 16.25829052 334.4965601 26.734311 334.45565224 37.43466568 C334.45338803 38.99988005 334.45156483 40.56509511 334.45014316 42.13031048 C334.44494101 46.4199357 334.43338406 50.70952362 334.42074406 54.99913251 C334.40819256 59.62970107 334.40149028 64.26027871 334.39399147 68.8908577 C334.3783097 77.95736631 334.3569757 87.02385313 334.33341344 96.09034438 C334.31429185 103.45851221 334.2968066 110.82668211 334.28047562 118.19485664 C334.23399647 139.0850685 334.18331074 159.97526388 334.12713256 180.86545194 C334.12410561 181.99116097 334.12107865 183.11687001 334.11795998 184.27669144 C334.11341273 185.96731566 334.11341273 185.96731566 334.10877363 187.6920939 C334.05986467 205.97094709 334.02093597 224.24980616 333.98653903 242.5286919 C333.95110867 261.29737619 333.90831111 280.06603109 333.85778362 298.83468097 C333.8295657 309.3719785 333.80439523 319.90926302 333.78712463 330.4465847 C333.77236562 339.41487738 333.75076548 348.3831211 333.7202495 357.35137457 C333.70487506 361.92738278 333.69270775 366.50334036 333.68914795 371.07937431 C333.68580844 375.26822097 333.67332624 379.4569371 333.65355621 383.64573752 C333.64801115 385.161082 333.64581416 386.6764432 333.64730331 388.19179709 C333.64883214 390.25250279 333.63812129 392.3128033 333.62440968 394.373456 C333.62158928 395.51777342 333.61876889 396.66209084 333.61586303 397.84108454 C333.17544753 403.50259371 331.66958301 408.0866643 328.48490334 412.75642776 C321.51031121 424.09013997 319.42431731 436.51874213 322.05521584 449.58455276 C323.90543968 456.14585078 326.65502465 461.87126096 330.03177834 467.77205276 C333.37543096 473.7119533 334.43441218 479.58994897 332.85990334 486.24470901 C330.80477801 492.44511554 327.55063715 495.75575859 322.00154305 499.24030685 C316.28795982 502.00987695 310.51543811 501.68500861 304.28116798 501.63936234 C302.97071778 501.6456023 301.66026757 501.65184226 300.31010675 501.65827131 C296.68762397 501.67491996 293.06556444 501.66673874 289.44308043 501.65432644 C285.53010266 501.64525911 281.6171966 501.65925448 277.70423317 501.67024612 C270.04238009 501.68802201 262.38068388 501.68419437 254.71882468 501.67259556 C248.48630191 501.66355257 242.25382301 501.662341 236.02129555 501.66669083 C235.13333271 501.66730376 234.24536988 501.66791669 233.33049908 501.6685482 C231.52636904 501.66982715 229.72223901 501.67112401 227.918109 501.67243856 C211.00216034 501.683843 194.0862984 501.67073554 177.17036396 501.6492371 C162.6804403 501.63139093 148.19064495 501.63444998 133.70072365 501.65291214 C116.85665034 501.67436391 100.0126532 501.68271842 83.16856813 501.67046309 C81.36872452 501.66918897 79.56888089 501.66793149 77.76903725 501.66669083 C76.88360504 501.66607372 75.99817283 501.66545662 75.08590934 501.66482082 C68.87063729 501.66137897 62.65541383 501.66717157 56.44014931 501.67660904 C48.85108722 501.68787945 41.26219041 501.68468485 33.67314702 501.66348606 C29.80680814 501.65303914 25.94074386 501.64874341 22.07440758 501.66208267 C-2.74692614 501.74043386 -24.35856022 500.4986217 -42.97994041 482.01814651 C-56.97912362 466.82666871 -59.95440092 449.06534272 -59.90079308 429.17285538 C-59.9038181 427.57291512 -59.90770934 425.97297631 -59.91238564 424.37304002 C-59.92262913 420.00108564 -59.92049316 415.6292136 -59.91620505 411.25725257 C-59.91373117 406.53251704 -59.92276021 401.80780099 -59.93024254 397.08307266 C-59.94297328 387.83616134 -59.94478525 378.58927907 -59.94244228 369.34236046 C-59.9406571 361.82366994 -59.94241303 354.30498822 -59.94666672 346.78629875 C-59.94726191 345.7149911 -59.9478571 344.64368345 -59.94847032 343.53991193 C-59.94968211 341.36333304 -59.95089624 339.18675415 -59.9521127 337.01017527 C-59.96298202 316.6110759 -59.96082865 296.21199307 -59.95472785 275.81289277 C-59.94955951 257.16710032 -59.96081304 238.52136012 -59.97982607 219.87557801 C-59.9992163 200.71240693 -60.00745837 181.54926056 -60.00370282 162.38607961 C-60.00179254 151.63451849 -60.00426144 140.88300184 -60.01841736 130.13144875 C-60.03034723 120.97824985 -60.03171804 111.8251228 -60.01962719 102.67192288 C-60.01374974 98.00587637 -60.01260761 93.33996116 -60.02462959 88.67392349 C-60.03552629 84.3947514 -60.03234033 80.11581966 -60.01836791 75.83665863 C-60.01573136 74.29637179 -60.01805442 72.75606587 -60.02610377 71.2157978 C-60.12544584 50.77223505 -55.34585762 33.11220073 -41.01509666 17.94392776 C-29.92671679 7.37636573 -15.52823434 0.01984195 0 0 Z M-12.64009666 50.13142776 C-17.10364148 57.13891253 -17.19910033 63.06407407 -17.12111473 71.2419014 C-17.12453243 72.55547355 -17.12795013 73.86904571 -17.1314714 75.22242308 C-17.14038409 78.85303039 -17.1244594 82.48316262 -17.10435915 86.11370945 C-17.08704471 90.03453192 -17.09293367 93.95532878 -17.09596825 97.87617874 C-17.09806309 104.66417129 -17.08553994 111.45200974 -17.06301689 118.23996353 C-17.0304739 128.05411305 -17.02008752 137.86818824 -17.01506492 147.68238586 C-17.00631588 163.60619725 -16.9797109 179.52992656 -16.94185448 195.45369339 C-16.90512428 210.91983505 -16.87681745 226.3859544 -16.85982323 241.85213089 C-16.85877233 242.80586769 -16.85772144 243.75960448 -16.8566387 244.7422424 C-16.85141845 249.52697998 -16.84636365 254.31171773 -16.84139109 259.09645557 C-16.79994121 298.7748371 -16.72950341 338.45312701 -16.64009666 378.13142776 C-15.81714607 377.9907519 -14.99419548 377.85007603 -14.14630699 377.70513725 C-0.82957878 375.72133842 12.45080041 375.82068282 25.89070582 375.81478354 C29.51303535 375.81096514 33.13532095 375.79561876 36.75762367 375.78181267 C43.76670273 375.7567811 50.77576679 375.74169709 57.78487974 375.73022876 C65.90432204 375.71650497 74.02369227 375.69017201 82.14310646 375.66389847 C103.54867671 375.60077774 124.95429429 375.55462831 146.35990334 375.50642776 C218.13490334 375.32080276 218.13490334 375.32080276 291.35990334 375.13142776 C291.35990334 265.24142776 291.35990334 155.35142776 291.35990334 42.13142776 C220.11084084 42.03861526 220.11084084 42.03861526 147.42240334 41.94392776 C132.41650734 41.91661575 117.41061134 41.88930374 101.94999123 41.86116409 C88.51541432 41.85113167 88.51541432 41.85113167 75.08083534 41.84509659 C69.09036163 41.84229821 63.09997179 41.83129042 57.10952187 41.81470108 C50.19943211 41.7955933 43.28942283 41.78692269 36.37930646 41.79109291 C32.84512335 41.79289875 29.31112008 41.79005266 25.77697003 41.77378237 C21.98908392 41.75886774 18.20164799 41.76245524 14.4137516 41.77066422 C13.31579986 41.76192622 12.21784811 41.75318823 11.0866251 41.74418545 C1.80331243 41.79828206 -5.99911995 43.18156841 -12.64009666 50.13142776 Z M-13.45259666 427.41658401 C-16.89410139 432.38638853 -17.41289865 437.21652022 -16.64009666 443.13142776 C-14.7398811 449.63786206 -10.32344594 454.54907814 -4.64009666 458.13142776 C1.51195808 460.38838171 7.24870738 460.40765483 13.75564003 460.3719368 C15.46745283 460.37450007 15.46745283 460.37450007 17.2138477 460.37711513 C21.03399998 460.38040675 24.85397624 460.36941151 28.67411232 460.35847855 C31.41402739 460.35680016 34.15393903 460.35814309 36.89385414 460.35936356 C42.79074802 460.36041094 48.68759756 460.35414965 54.58448029 460.34288788 C63.1103178 460.326616 71.63613393 460.32142314 80.16198529 460.3189119 C93.99546686 460.31453744 107.82892482 460.30123511 121.66239357 460.28230667 C135.09826477 460.26394141 148.53412954 460.24978807 161.97001076 460.24129105 C162.79855646 460.2407656 163.62710217 460.24024015 164.48075532 460.23969878 C168.63743265 460.23708866 172.79411002 460.23456125 176.95078743 460.23207498 C211.42050973 460.21135025 245.89020398 460.17613152 280.35990334 460.13142776 C280.28925667 459.31956009 280.21861 458.50769241 280.14582253 457.67122269 C280.05420845 456.59977005 279.96259438 455.52831741 279.86820412 454.42439651 C279.77693245 453.36502884 279.68566078 452.30566116 279.59162331 451.21419144 C279.2883517 447.17951676 279.21268332 443.17547012 279.23490334 439.13142776 C279.23103615 438.42759964 279.22716896 437.72377151 279.22318459 436.99861526 C279.23109054 432.58709016 279.48948642 428.23414163 279.86820412 423.83845901 C279.95981819 422.76700638 280.05143227 421.69555374 280.14582253 420.59163284 C280.21646919 419.77976517 280.28711586 418.96789749 280.35990334 418.13142776 C244.69836248 418.03986209 209.03684224 417.96938389 173.37520802 417.92716645 C169.16453986 417.92216365 164.95387193 417.91698636 160.74320412 417.9117012 C159.90493985 417.91065196 159.06667558 417.90960272 158.20300937 417.90852168 C144.63190559 417.89111887 131.06086962 417.85958187 117.48980606 417.82281658 C103.56349883 417.7854037 89.63722711 417.76319118 75.7108717 417.75507379 C67.11830297 417.74958673 58.52592591 417.73225956 49.93341619 417.6997619 C44.04032386 417.67860972 38.14733055 417.6722293 32.25420302 417.67742226 C28.85468317 417.67998297 25.45549814 417.67607186 22.0560379 417.65460587 C18.36701996 417.63471304 14.67882298 417.63948717 10.98978615 417.6504097 C9.91973241 417.63875833 8.84967867 417.62710697 7.74719906 417.61510253 C-1.35627569 417.68798609 -7.73796487 420.07141869 -13.45259666 427.41658401 Z " fill="#047857" transform="translate(118.64009666442871,4.868572235107422)"/>
<path d="M0 0 C0.64876685 -0.00382555 1.2975337 -0.00765109 1.96596014 -0.01159257 C4.12604184 -0.02185879 6.28585454 -0.0179427 8.44595337 -0.01396179 C10.00034327 -0.01831183 11.55473102 -0.02349596 13.1091156 -0.02944946 C17.32199725 -0.04281994 21.53478909 -0.04342026 25.74768782 -0.04088616 C29.26895225 -0.03981503 32.79019862 -0.0447035 36.31145918 -0.04949158 C44.62144109 -0.06058022 52.9313778 -0.06102793 61.24136353 -0.05497742 C69.80398691 -0.04893865 78.36644592 -0.06124763 86.92904127 -0.08254749 C94.28974654 -0.10018192 101.65039959 -0.1061619 109.01112521 -0.10290974 C113.40327908 -0.10109953 117.79531573 -0.10370677 122.18745041 -0.11762428 C126.31942684 -0.13022787 130.4511477 -0.1282347 134.58312035 -0.11521339 C136.09556987 -0.11285349 137.60803751 -0.11556124 139.12046623 -0.12383652 C156.05881873 -0.20979861 156.05881873 -0.20979861 162.75698853 5.27632141 C168.02000592 11.42008866 170.63252512 15.99157958 170.17105103 24.26069641 C169.16945477 31.77266829 165.91208997 36.12123145 160.27261353 40.99897766 C155.64092463 43.95556958 151.02804861 44.51175036 145.63006592 44.52139282 C144.66304097 44.52713114 144.66304097 44.52713114 143.67648017 44.53298539 C141.53021746 44.54325076 139.38422551 44.53933569 137.23794556 44.53535461 C135.69340774 44.5397047 134.14887207 44.54488884 132.6043396 44.55084229 C128.41831644 44.56421226 124.23238368 44.56481314 120.04634333 44.56227899 C116.5474468 44.56120782 113.04856845 44.56609642 109.54967582 44.57088441 C101.29243154 44.58197287 93.03523274 44.58242085 84.77798462 44.57637024 C76.2698924 44.5703315 67.7619656 44.58264041 59.2539016 44.60394031 C51.939905 44.62157515 44.62596096 44.62755466 37.31194389 44.62430257 C32.9477354 44.62249242 28.58364489 44.62509897 24.21945572 44.63901711 C20.11374357 44.65162135 16.00828861 44.64962692 11.90258026 44.63660622 C10.39980608 44.63424645 8.89701365 44.63695356 7.39426041 44.64522934 C-10.39707949 44.73610669 -10.39707949 44.73610669 -17.51644897 38.44819641 C-18.05914429 37.9880011 -18.6018396 37.52780579 -19.16098022 37.05366516 C-24.03254656 31.39278174 -24.28437879 25.85514597 -24.11801147 18.67866516 C-23.35470961 12.37782433 -20.33783734 8.57111003 -15.76644897 4.38569641 C-10.65751603 0.84072253 -6.15213287 0.01091954 0 0 Z " fill="#047857" transform="translate(184.70394897460938,233.7393035888672)"/>
<path d="M0 0 C0.6528504 -0.00453111 1.3057008 -0.00906223 1.97833455 -0.01373065 C4.15222507 -0.02632746 6.32586354 -0.02475739 8.49978638 -0.02310181 C10.06402913 -0.02908998 11.62826894 -0.03589619 13.19250488 -0.04345703 C17.43223682 -0.06109388 21.67188797 -0.0658114 25.91165304 -0.0670886 C28.56276504 -0.06851196 31.21385661 -0.07278503 33.86496353 -0.07808304 C43.12020416 -0.09657494 52.37538726 -0.10475461 61.63064575 -0.10317993 C70.24784117 -0.10197843 78.86478616 -0.12308452 87.48191822 -0.15466726 C94.88933355 -0.1808455 102.29666716 -0.19154659 109.70412838 -0.19026911 C114.1242721 -0.18975998 118.54419312 -0.1954164 122.96429062 -0.21662521 C127.12258507 -0.23603404 131.28044497 -0.23611421 135.43875504 -0.22159195 C136.96088549 -0.21950609 138.48304334 -0.2241915 140.00512695 -0.23631287 C149.23221176 -0.30500905 156.16404208 -0.03677632 163.50027466 6.16195679 C168.38175498 11.89594443 170.55849145 16.53710897 170.19558716 24.20492554 C169.33154009 30.81589031 166.24832243 35.66849605 161.38308716 40.14242554 C156.08406804 43.74575853 150.83927316 44.51625431 144.52326965 44.53485107 C143.20707642 44.54338104 141.89088318 44.55191101 140.5348053 44.56069946 C139.09320056 44.56000057 137.65159592 44.55907758 136.20999146 44.55795288 C134.67840245 44.56394305 133.14681645 44.57074972 131.61523438 44.57830811 C127.46839923 44.59592563 123.3216467 44.60066169 119.17477775 44.60193968 C116.58009537 44.60336425 113.9854338 44.60763964 111.39075661 44.61293411 C102.32772114 44.63142038 93.26474437 44.63960649 84.20169067 44.63803101 C75.77139604 44.63683001 67.34135758 44.65792777 58.91112775 44.68951833 C51.65822423 44.71572257 44.40540418 44.72639656 37.15245372 44.72512019 C32.82727433 44.72461177 28.50232275 44.73022809 24.17719078 44.75147629 C20.10669707 44.77092883 16.03664686 44.77093568 11.96613693 44.75644302 C10.47870926 44.75436248 8.9912533 44.75901053 7.50387383 44.77116394 C-1.45158365 44.83955585 -10.66059073 44.87048104 -17.67380238 38.51737022 C-23.29851464 32.46461371 -24.2583113 26.60993452 -24.12081909 18.49789429 C-23.40008918 12.3531145 -20.26698487 8.46643589 -15.80441284 4.39242554 C-10.68369099 0.8392716 -6.16573808 0.01775438 0 0 Z " fill="#047857" transform="translate(184.74191284179688,151.73257446289063)"/>
</svg>
