<?xml version="1.0" encoding="UTF-8"?>
<svg version="1.1" xmlns="http://www.w3.org/2000/svg" width="512" height="512">
<path d="M0 0 C0.7471225 0.00021149 1.494245 0.00042297 2.26400757 0.00064087 C19.23311189 0.04848971 34.9353098 2.17342692 50.5 9.375 C51.90958984 10.01888672 51.90958984 10.01888672 53.34765625 10.67578125 C61.36633572 14.67948197 69.84663026 20.47331373 74.18664551 28.49081421 C76.25667579 31.69107382 76.25667579 31.69107382 79.8614502 32.10757446 C81.21540508 32.13043553 82.57015846 32.12045732 83.92382812 32.08447266 C84.66591522 32.08867722 85.40800232 32.09288177 86.1725769 32.09721375 C88.62629547 32.10492307 91.07776032 32.07131177 93.53125 32.0390625 C95.24556973 32.04015705 96.95989015 32.04446895 98.67419434 32.05184937 C103.19410247 32.06527008 107.71321717 32.04642575 112.23303223 32.01739502 C119.43781075 31.97210094 126.64214318 31.95658183 133.84703064 31.97694016 C136.34870234 31.97657099 138.84921111 31.95092836 141.35070801 31.92324829 C157.0538596 31.86002803 168.56620675 35.84739423 180.25 46.6875 C191.34910291 58.41485402 192.9510466 71.33536001 192.88768005 86.834198 C192.89185743 88.50069923 192.89733715 90.16719761 192.90399987 91.83369076 C192.91842026 96.39422283 192.91422041 100.95457365 192.90683305 105.5151155 C192.90209524 110.44093113 192.91461666 115.36670789 192.92485046 120.29251099 C192.94203181 129.93527772 192.94287984 139.57797928 192.93763756 149.22075735 C192.93359337 157.05985859 192.93504238 164.8989406 192.94038582 172.73804092 C192.94113424 173.85446729 192.94188266 174.97089366 192.94265376 176.12115113 C192.94418527 178.38929502 192.94572362 180.6574389 192.94726873 182.92558278 C192.96099139 204.18780081 192.95555774 225.44998204 192.94408352 246.71219923 C192.93415156 266.15480489 192.94709161 285.59731538 192.97101771 305.03990637 C192.99541274 325.01438999 193.00501557 344.9888293 192.99836498 364.96332753 C192.99487365 376.17315954 192.99709922 387.38291837 193.01461601 398.59273911 C193.02934302 408.13543882 193.02996685 417.67801381 193.0125451 427.2207111 C193.00403687 432.08703567 193.00188131 436.95313747 193.01719666 441.81945038 C193.03105886 446.27934424 193.02626091 450.7388248 193.00695742 455.19869484 C193.00320181 456.80694215 193.00610667 458.41522268 193.01656907 460.02344035 C193.11406383 476.16514022 189.32641508 488.11914106 178.1875 500.125 C167.63687125 510.1104165 155.82452765 512.83586697 141.68533325 512.76268005 C140.42752167 512.76806559 139.16971008 512.77345113 137.87378299 512.77899987 C134.4077836 512.7933762 130.94202357 512.78923447 127.47601151 512.78183305 C123.72811581 512.77708417 119.98027063 512.78962639 116.23239136 512.79985046 C108.89971185 512.81701037 101.56711814 512.8178843 94.23442377 512.81263756 C88.27175093 512.80858929 82.30910337 512.8100472 76.34643173 512.81538582 C75.49644004 512.81613424 74.64644836 512.81688266 73.77069934 512.81765376 C72.04370745 512.81918531 70.31671557 512.82072366 68.58972369 512.82226873 C52.40927355 512.83598368 36.22887182 512.83056322 20.0484228 512.81908352 C5.26170464 512.80915275 -9.52488835 512.82209089 -24.3115872 512.84601771 C-39.51290156 512.87042917 -54.71415767 512.88001152 -69.91549122 512.87336498 C-78.44254708 512.86987724 -86.96950671 512.87207538 -95.4965477 512.88961601 C-102.75555788 512.90436363 -110.01440408 512.90494012 -117.27341114 512.8875451 C-120.97320679 512.8790536 -124.67270982 512.87683978 -128.37248993 512.89219666 C-132.3923506 512.90867483 -136.41151025 512.89384913 -140.43136597 512.87620544 C-141.58800275 512.88581045 -142.74463953 512.89541546 -143.93632591 512.90531152 C-158.1510235 512.77739505 -168.92443567 507.64245466 -179.25 498.0625 C-190.34910291 486.33514598 -191.9510466 473.41463999 -191.88768005 457.915802 C-191.89185743 456.24930077 -191.89733715 454.58280239 -191.90399987 452.91630924 C-191.91842026 448.35577717 -191.91422041 443.79542635 -191.90683305 439.2348845 C-191.90209524 434.30906887 -191.91461666 429.38329211 -191.92485046 424.45748901 C-191.94203181 414.81472228 -191.94287984 405.17202072 -191.93763756 395.52924265 C-191.93359337 387.69014141 -191.93504238 379.8510594 -191.94038582 372.01195908 C-191.94113424 370.89553271 -191.94188266 369.77910634 -191.94265376 368.62884887 C-191.94418527 366.36070498 -191.94572362 364.0925611 -191.94726873 361.82441722 C-191.96099139 340.56219919 -191.95555774 319.30001796 -191.94408352 298.03780077 C-191.93415156 278.59519511 -191.94709161 259.15268462 -191.97101771 239.71009363 C-191.99541274 219.73561001 -192.00501557 199.7611707 -191.99836498 179.78667247 C-191.99487365 168.57684046 -191.99709922 157.36708163 -192.01461601 146.15726089 C-192.02934302 136.61456118 -192.02996685 127.07198619 -192.0125451 117.5292889 C-192.00403687 112.66296433 -192.00188131 107.79686253 -192.01719666 102.93054962 C-192.03105886 98.47065576 -192.02626091 94.0111752 -192.00695742 89.55130516 C-192.00320181 87.94305785 -192.00610667 86.33477732 -192.01656907 84.72655965 C-192.11406383 68.58485978 -188.32641508 56.63085894 -177.1875 44.625 C-165.77399429 33.8229321 -153.28244398 31.93642445 -138.18080902 32.117136 C-135.62413064 32.14505257 -133.06835653 32.1496577 -130.51153564 32.14762878 C-123.25020292 32.14411747 -115.98949721 32.16738337 -108.72851562 32.2409668 C-104.26863313 32.28452352 -99.81010535 32.28922295 -95.35007477 32.26938438 C-93.65798673 32.26948172 -91.96583092 32.28429166 -90.2740097 32.31434059 C-81.23188866 32.82273048 -81.23188866 32.82273048 -73.16928101 29.61312866 C-71.640282 27.58796194 -70.564032 25.66920498 -69.5 23.375 C-52.78348474 4.495171 -23.77647951 -0.06218955 0 0 Z M-12.875 40 C-15.07907893 44.57770239 -15.2971639 48.38052411 -14.5 53.375 C-12.17031069 58.21358548 -9.33858548 61.04531069 -4.5 63.375 C0.49447589 64.1721639 4.29729761 63.95407893 8.875 61.75 C12.45907713 58.50726355 15.09535241 55.91024104 15.8828125 50.9765625 C16.13883919 45.29277006 15.43626932 41.72561345 11.5 37.375 C7.14938655 33.43873068 3.58222994 32.73616081 -2.1015625 32.9921875 C-7.03524104 33.77964759 -9.63226355 36.41592287 -12.875 40 Z M-155.4375 70.125 C-158.90381269 75.58706848 -159.74969312 80.81363422 -159.75447559 87.2082653 C-159.75768207 87.86198134 -159.76088855 88.51569738 -159.76419219 89.18922299 C-159.77246725 91.37102083 -159.7665768 93.55254235 -159.76069641 95.73434448 C-159.76371824 97.31789681 -159.76760788 98.90144767 -159.77228898 100.48499596 C-159.78257372 104.83003453 -159.78038594 109.17499063 -159.77610838 113.52003598 C-159.77364203 118.20861785 -159.7826542 122.89717981 -159.79014587 127.58575439 C-159.80289742 136.76870379 -159.804686 145.95162396 -159.80234561 155.13458072 C-159.8005628 162.59858533 -159.8023113 170.06258107 -159.80657005 177.52658463 C-159.80716524 178.58877641 -159.80776043 179.65096819 -159.80837366 180.7453476 C-159.8095854 182.90317328 -159.81079954 185.06099896 -159.81201603 187.21882464 C-159.82289333 207.45656503 -159.82072818 227.69428876 -159.81463119 247.9320301 C-159.80946188 266.44565776 -159.82071752 284.95923281 -159.83972941 303.47285007 C-159.85910184 322.48331874 -159.86736485 341.4937625 -159.86360615 360.50424111 C-159.86169321 371.17689567 -159.8641908 381.84950544 -159.87832069 392.52215195 C-159.89022788 401.60788502 -159.8916468 410.69354575 -159.87953053 419.77927981 C-159.87363721 424.41430036 -159.87255497 429.04918852 -159.88453293 433.68420029 C-159.89537584 437.92934696 -159.89230734 442.17425046 -159.87827124 446.41938569 C-159.87561993 447.95297368 -159.8780045 449.48658064 -159.88600711 451.02015005 C-160.26763115 463.69988773 -160.26763115 463.69988773 -155.22509462 474.94657886 C-148.55264572 481.12519201 -140.2895406 480.66507376 -131.78518677 480.63569641 C-130.60949281 480.63952196 -129.43379884 480.64334751 -128.22247779 480.64728898 C-124.9719685 480.6558039 -121.7216041 480.6553923 -118.47109103 480.65110838 C-114.96043131 480.64863752 -111.44979796 480.65765981 -107.93914795 480.66514587 C-101.06628901 480.67788497 -94.19346916 480.67968754 -87.32060041 480.67734561 C-81.73302519 480.67556138 -76.14546183 480.67731435 -70.55788803 480.68157005 C-69.76213093 480.68216524 -68.96637383 480.68276043 -68.14650287 480.68337366 C-66.52982919 480.68458543 -64.91315551 480.68579956 -63.29648183 480.68701603 C-48.14051153 480.69788857 -32.98456348 480.69573046 -17.82859193 480.68963119 C-3.97085625 480.68446252 9.88680913 480.69571665 23.7445309 480.71472941 C37.98182886 480.73411283 52.21909357 480.7423629 66.45640481 480.73860615 C74.44628025 480.73669485 82.43609587 480.7391748 90.42596054 480.75332069 C97.22799875 480.76524191 104.0299403 480.76663111 110.83197986 480.75453053 C114.30046271 480.74864696 117.76876882 480.74752778 121.23723984 480.75953293 C125.00206349 480.7699804 128.76641289 480.76191496 132.53121948 480.7492218 C133.62082218 480.75659609 134.71042488 480.76397037 135.83304584 480.77156812 C142.48240802 480.72444189 149.67632092 480.44902067 155.08581531 476.10009462 C159.92610189 470.81788588 160.74931301 464.44460838 160.75447559 457.5417347 C160.75768207 456.88801866 160.76088855 456.23430262 160.76419219 455.56077701 C160.77246725 453.37897917 160.7665768 451.19745765 160.76069641 449.01565552 C160.76371824 447.43210319 160.76760788 445.84855233 160.77228898 444.26500404 C160.78257372 439.91996547 160.78038594 435.57500937 160.77610838 431.22996402 C160.77364203 426.54138215 160.7826542 421.85282019 160.79014587 417.16424561 C160.80289742 407.98129621 160.804686 398.79837604 160.80234561 389.61541928 C160.8005628 382.15141467 160.8023113 374.68741893 160.80657005 367.22341537 C160.80746284 365.6301277 160.80746284 365.6301277 160.80837366 364.0046524 C160.8095854 361.84682672 160.81079954 359.68900104 160.81201603 357.53117536 C160.82289333 337.29343497 160.82072818 317.05571124 160.81463119 296.8179699 C160.80946188 278.30434224 160.82071752 259.79076719 160.83972941 241.27714993 C160.85910184 222.26668126 160.86736485 203.2562375 160.86360615 184.24575889 C160.86169321 173.57310433 160.8641908 162.90049456 160.87832069 152.22784805 C160.89022788 143.14211498 160.8916468 134.05645425 160.87953053 124.97072019 C160.87363721 120.33569964 160.87255497 115.70081148 160.88453293 111.06579971 C160.89537584 106.82065304 160.89230734 102.57574954 160.87827124 98.33061431 C160.87561993 96.79702632 160.8780045 95.26341936 160.88600711 93.72984995 C161.26763115 81.05011227 161.26763115 81.05011227 156.22509462 69.80342114 C151.01732732 64.98108678 144.66938819 64.12086381 137.83032227 64.14794922 C136.54952286 64.14810028 135.26872345 64.14825134 133.94911194 64.14840698 C132.57154175 64.15861711 131.19397319 64.16904904 129.81640625 64.1796875 C128.39151712 64.18342279 126.96662541 64.18626733 125.54173279 64.18826294 C121.81154145 64.19585879 118.0815086 64.21547191 114.35137939 64.2376709 C110.5370091 64.25821709 106.72261293 64.26728333 102.90820312 64.27734375 C95.43873024 64.29872212 87.96938742 64.33280845 80.5 64.375 C80.48598145 65.32753662 80.48598145 65.32753662 80.47167969 66.29931641 C80.41771267 69.200308 80.33411873 72.09973244 80.25 75 C80.23582031 75.99902344 80.22164062 76.99804688 80.20703125 78.02734375 C80.01234004 83.9070184 79.64032476 87.84919673 75.5 92.375 C71.76128902 95.05538927 69.19959668 95.75178029 64.62416077 95.76268005 C63.44797684 95.77258469 62.27179291 95.78248932 61.05996704 95.79269409 C59.7782663 95.78819244 58.49656555 95.7836908 57.17602539 95.77905273 C55.80572452 95.78475814 54.43542841 95.79172306 53.06513977 95.79985046 C49.35020677 95.81777864 45.63551002 95.81661418 41.92054677 95.81090808 C38.81666919 95.80781564 35.71283694 95.8139093 32.60896581 95.81994683 C25.28525193 95.83398938 17.96165469 95.83243311 10.63793945 95.82104492 C3.08803764 95.80956429 -4.46150892 95.82363885 -12.01136392 95.8504414 C-18.49900369 95.87260878 -24.98653204 95.87923344 -31.47420698 95.87336498 C-35.34656345 95.86999661 -39.21869222 95.87240228 -43.09101677 95.88961601 C-46.73306618 95.90509979 -50.37458997 95.90111437 -54.01661873 95.88231087 C-55.98590032 95.87687657 -57.95520559 95.89112829 -59.92443848 95.90600586 C-70.68302579 95.81626787 -70.68302579 95.81626787 -75.5 91.375 C-79.63229147 86.76692231 -79.05601564 80.93421581 -79.1875 75.0625 C-79.22166016 74.03576172 -79.25582031 73.00902344 -79.29101562 71.95117188 C-79.37323409 69.42589037 -79.44246936 66.9009446 -79.5 64.375 C-87.68909442 64.30522052 -95.87806279 64.25204789 -104.06738186 64.21956348 C-107.87079372 64.20396571 -111.67400085 64.18283652 -115.47729492 64.14868164 C-119.15370229 64.11587615 -122.82991383 64.0981028 -126.50645638 64.09036827 C-127.90296571 64.08486249 -129.29946539 64.07411186 -130.69589043 64.05780983 C-144.20082566 63.6340187 -144.20082566 63.6340187 -155.4375 70.125 Z " fill="#FFFFFF" transform="translate(255.5,-0.375)"/>
<path d="M0 0 C63.36 0 126.72 0 192 0 C192 10.56 192 21.12 192 32 C128.64 32 65.28 32 0 32 C0 21.44 0 10.88 0 0 Z " fill="#FFFFFF" transform="translate(160,256)"/>
<path d="M0 0 C63.36 0 126.72 0 192 0 C192 10.56 192 21.12 192 32 C128.64 32 65.28 32 0 32 C0 21.44 0 10.88 0 0 Z " fill="#FFFFFF" transform="translate(160,160)"/>
<path d="M0 0 C31.68 0 63.36 0 96 0 C96 10.56 96 21.12 96 32 C64.32 32 32.64 32 0 32 C0 21.44 0 10.88 0 0 Z " fill="#FFFFFF" transform="translate(160,352)"/>
</svg>
