<?xml version="1.0" standalone="no"?>
<!DOCTYPE svg PUBLIC "-//W3C//DTD SVG 20010904//EN"
 "http://www.w3.org/TR/2001/REC-SVG-20010904/DTD/svg10.dtd">
<svg version="1.0" xmlns="http://www.w3.org/2000/svg"
 width="512.000000pt" height="512.000000pt" viewBox="0 0 512.000000 512.000000"
 preserveAspectRatio="xMidYMid meet">

<g transform="translate(0.000000,512.000000) scale(0.100000,-0.100000)"
fill="#4338CA" stroke="none">
<path d="M1986 4876 c-49 -18 -82 -42 -118 -87 -23 -28 -50 -119 -166 -549
l-138 -515 -469 -5 -470 -5 -48 -28 c-127 -75 -145 -260 -36 -364 67 -63 68
-63 505 -63 313 0 395 -3 391 -12 -2 -7 -86 -319 -187 -693 -100 -374 -184
-683 -187 -687 -2 -5 -198 -8 -435 -8 -294 0 -443 -4 -469 -11 -55 -17 -108
-65 -135 -123 -40 -86 -28 -175 35 -247 67 -79 66 -79 499 -79 360 0 383 -1
378 -17 -61 -206 -236 -892 -236 -925 0 -57 41 -140 86 -174 125 -96 308 -45
362 101 11 29 272 999 272 1010 0 3 371 5 825 5 539 0 825 -3 825 -10 0 -5
-54 -213 -121 -461 -130 -484 -130 -488 -90 -567 41 -80 117 -126 206 -126 73
0 128 26 178 84 39 46 25 -1 200 655 l113 420 469 5 470 5 48 28 c123 72 145
249 44 356 -67 71 -66 71 -511 71 -314 0 -397 3 -393 13 2 6 86 318 187 692
100 374 184 683 187 688 2 4 198 7 435 7 294 0 443 4 469 11 55 17 108 65 135
123 40 86 28 175 -35 247 -67 79 -66 79 -499 79 -360 0 -383 1 -378 18 61 205
236 891 236 924 0 57 -41 140 -86 174 -47 36 -119 56 -176 49 -59 -8 -130 -53
-162 -102 -17 -26 -66 -193 -160 -545 -75 -280 -136 -510 -136 -513 0 -3 -371
-5 -825 -5 -548 0 -825 3 -825 10 0 6 53 205 117 443 124 459 132 510 98 577
-54 107 -179 163 -279 126z m1580 -1643 c-4 -16 -84 -314 -177 -663 -94 -349
-174 -652 -180 -672 l-10 -38 -825 0 -826 0 6 28 c8 30 354 1326 362 1355 5
16 53 17 831 17 l825 0 -6 -27z"/>
</g>
</svg>
