<?xml version="1.0" encoding="UTF-8"?>
<svg version="1.1" xmlns="http://www.w3.org/2000/svg" width="512" height="512">
<path d="M0 0 C0.66547852 0.18191895 1.33095703 0.36383789 2.01660156 0.55126953 C24.274097 6.75608702 43.23602449 19.43931148 60 35 C60.65613281 35.57878906 61.31226563 36.15757812 61.98828125 36.75390625 C82.26082738 55.51545515 92.78615725 82.55645907 98 109 C98.1757959 109.76022461 98.3515918 110.52044922 98.53271484 111.30371094 C101.5926002 128.95960117 99.91692883 149.90456688 95 167 C94.79632813 167.74668945 94.59265625 168.49337891 94.3828125 169.26269531 C88.58728768 190.11048599 77.84430495 207.49622395 63.328125 223.3828125 C47.66009491 240.99620203 40.91439732 259.37470529 39.85839844 282.90527344 C39.31317471 292.72864726 36.97887515 301.18316307 30.875 309.0625 C30.19179688 309.96097656 29.50859375 310.85945313 28.8046875 311.78515625 C27 314 27 314 25 316 C24.80272221 318.59346743 24.72307905 321.0889351 24.7265625 323.68359375 C24.70624284 325.2675848 24.68539156 326.8515691 24.6640625 328.43554688 C24.64163772 330.92347878 24.62506274 333.41114225 24.61914062 335.89916992 C24.55820258 351.09254744 22.37464372 362.19310458 12 374 C6.97994372 378.72218208 1.38381745 382.39461222 -5 385 C-5.80195801 385.3400708 -6.60391602 385.6801416 -7.43017578 386.03051758 C-12.3578053 387.36874879 -17.05160249 387.32493038 -22.13671875 387.3359375 C-23.2119429 387.3425943 -24.28716705 387.3492511 -25.39497375 387.35610962 C-27.66686295 387.36621509 -29.93878171 387.37092729 -32.21069336 387.37060547 C-35.65854841 387.37496341 -39.10510681 387.41126503 -42.55273438 387.44921875 C-44.76822483 387.45509062 -46.98372131 387.45905753 -49.19921875 387.4609375 C-50.7263575 387.48249405 -50.7263575 387.48249405 -52.28434753 387.50448608 C-64.41319437 387.42839631 -73.9537306 382.94889924 -83 375 C-91.29909583 366.17739906 -96.34158797 356.02069559 -96.16796875 343.8203125 C-96.17364613 342.23567107 -96.18085527 340.65103452 -96.18945312 339.06640625 C-96.19362159 336.59524434 -96.18750997 334.1257474 -96.15454102 331.65478516 C-95.65200324 320.65676896 -95.65200324 320.65676896 -100.375 311.1875 C-101.5718838 310.11211873 -102.77872813 309.04760237 -104 308 C-105.70703125 305.2421875 -105.70703125 305.2421875 -106.8125 302.875 C-107.37904297 301.69550781 -107.37904297 301.69550781 -107.95703125 300.4921875 C-108.30121094 299.66976563 -108.64539063 298.84734375 -109 298 C-109.35707031 297.154375 -109.71414062 296.30875 -110.08203125 295.4375 C-111.4317746 290.38314191 -111.56828545 285.33292755 -111.875 280.125 C-113.48155118 257.62191254 -119.49728459 238.69903729 -136.375 222.75 C-152.47677449 206.98290442 -162.08456696 185.38723088 -168 164 C-168.19207031 163.32420898 -168.38414062 162.64841797 -168.58203125 161.95214844 C-174.21901958 141.05010966 -172.94556696 114.61129881 -167 94 C-166.79101074 93.24267578 -166.58202148 92.48535156 -166.36669922 91.70507812 C-156.5662888 56.90811529 -132.50619085 28.78028058 -101.2578125 11.21630859 C-91.36279316 5.88575211 -80.89771913 1.75956311 -70 -1 C-68.86949219 -1.2990625 -67.73898438 -1.598125 -66.57421875 -1.90625 C-45.45407752 -6.56605644 -20.73650134 -5.94915656 0 0 Z M-104 51 C-104.66515625 51.53109375 -105.3303125 52.0621875 -106.015625 52.609375 C-125.06990894 68.36291684 -136.74092208 92.76463064 -140 117 C-142.02152777 145.39014965 -136.8097288 173.22999748 -118.09375 195.6171875 C-115.96401583 198.04095214 -113.80070156 200.42995358 -111.625 202.8125 C-92.70303537 223.753676 -82.31272221 247.09259122 -81.42871094 275.54443359 C-81.19526904 281.64746353 -80.70093289 287.03738513 -76.5625 291.8125 C-71.11809968 296.46015881 -67.03597767 297.11944917 -60.03564453 297.14526367 C-58.85737091 297.15164352 -57.67909729 297.15802338 -56.46511841 297.16459656 C-55.20045746 297.16570938 -53.93579651 297.1668222 -52.6328125 297.16796875 C-51.32472626 297.17129715 -50.01664001 297.17462555 -48.66891479 297.17805481 C-45.90345433 297.18403024 -43.13802505 297.18589634 -40.37255859 297.18530273 C-36.84327081 297.1852012 -33.3141846 297.19885126 -29.78494453 297.21607494 C-26.40089773 297.22992188 -23.01688723 297.22928504 -19.6328125 297.23046875 C-17.74189377 297.24124702 -17.74189377 297.24124702 -15.81277466 297.25224304 C-5.21703648 297.41828901 -5.21703648 297.41828901 3.8125 292.5625 C8.49191457 287.08090008 9.02847054 283.15497121 9.23925781 276.07495117 C10.19245432 246.63071117 22.08092917 221.75980763 42.125 200.5 C59.53795964 181.6497802 68.43080263 156.71078241 68.3125 131.25 C68.30758545 130.00589355 68.3026709 128.76178711 68.29760742 127.47998047 C68.1879904 118.90961558 67.64443894 111.19989333 65 103 C64.6596875 101.87464844 64.319375 100.74929687 63.96875 99.58984375 C59.03189015 84.52908548 51.31478938 71.93528767 41 60 C40.01580078 58.86111328 40.01580078 58.86111328 39.01171875 57.69921875 C26.77849281 44.62774178 9.09477171 34.97695885 -8 30 C-9.51400391 29.55333984 -9.51400391 29.55333984 -11.05859375 29.09765625 C-43.76528479 21.04163814 -78.34218196 29.58633231 -104 51 Z M-66 327 C-66.91524247 340.42331252 -66.91524247 340.42331252 -61.5625 351.8125 C-54.33617522 357.98131383 -47.32994873 357.18639213 -38.18994141 357.18530273 C-36.13813426 357.18748602 -34.08686827 357.20566217 -32.03515625 357.22460938 C-30.72675781 357.22654297 -29.41835938 357.22847656 -28.0703125 357.23046875 C-26.88195801 357.23457764 -25.69360352 357.23868652 -24.46923828 357.24291992 C-19.18396748 356.87283938 -15.22738989 356.06373791 -11.1875 352.5625 C-4.27065778 344.45991339 -6 338.27112699 -6 327 C-25.8 327 -45.6 327 -66 327 Z " fill="#6366F1" transform="translate(292,125)"/>
<path d="M0 0 C0.76908691 -0.02618408 1.53817383 -0.05236816 2.33056641 -0.0793457 C7.59247593 -0.0947782 10.63880538 0.81115377 14.75 4.375 C18.80630398 9.59759857 18.52397544 15.02840142 17.75 21.375 C15.56037168 25.99754868 13.28649233 28.14909443 8.75 30.375 C5.71244977 31.05770673 2.64994329 31.42743651 -0.4375 31.8125 C-13.3763319 33.67979617 -23.83093939 37.24502246 -32.2578125 47.91796875 C-35.42301684 52.66577525 -37.7496743 57.43626544 -39.8125 62.75 C-42.11227334 68.62127564 -44.55234569 71.52617285 -50.25 74.375 C-55.29222938 74.92819423 -59.14827941 74.95590722 -63.6875 72.5625 C-69.89807437 67.26079017 -69.89807437 67.26079017 -70.5234375 62.1328125 C-71.10201118 47.13440246 -62.90071497 34.45953572 -53.3125 23.5625 C-39.20564398 8.58195652 -20.47122871 0.42193866 0 0 Z " fill="#6366F1" transform="translate(253.25,180.625)"/>
<path d="M0 0 C4.71878688 1.69164058 7.20582817 3.86048618 10 8 C11.57774533 12.733236 12.23076546 17.49101407 9.96434021 22.11125183 C5.84576077 28.18804925 1.11267789 33.32419317 -4.08984375 38.48828125 C-4.95259415 39.35390182 -5.81534454 40.2195224 -6.70423889 41.1113739 C-8.51846197 42.92762701 -10.33643315 44.74014321 -12.15795898 46.54907227 C-14.93631901 49.31132586 -17.69825654 52.08927685 -20.45898438 54.86914062 C-22.23080943 56.63898383 -24.00356458 58.40789651 -25.77734375 60.17578125 C-26.5973436 61.00185379 -27.41734344 61.82792633 -28.26219177 62.67903137 C-37.85762193 72.15826878 -37.85762193 72.15826878 -44.44140625 73.49609375 C-49.326167 73.36115561 -52.83293779 72.81034428 -57 70 C-61.17921204 65.48193293 -62.53010879 61.62946194 -62.38050842 55.5644989 C-61.13066723 47.14098923 -52.65146863 40.21061726 -46.91015625 34.51171875 C-46.04740585 33.64609818 -45.18465546 32.7804776 -44.29576111 31.8886261 C-42.48153803 30.07237299 -40.66356685 28.25985679 -38.84204102 26.45092773 C-36.06368099 23.68867414 -33.30174346 20.91072315 -30.54101562 18.13085938 C-28.76919057 16.36101617 -26.99643542 14.59210349 -25.22265625 12.82421875 C-24.4026564 11.99814621 -23.58265656 11.17207367 -22.73780823 10.32096863 C-15.88861382 3.55471232 -10.06987923 -1.50680675 0 0 Z " fill="#6366F1" transform="translate(430,71)"/>
<path d="M0 0 C6.07679742 4.11857944 11.21294134 8.85166232 16.37702942 14.05418396 C17.24264999 14.91693436 18.10827057 15.77968475 19.00012207 16.6685791 C20.81637518 18.48280218 22.62889137 20.30077336 24.43782043 22.12229919 C27.20007403 24.90065922 29.97802502 27.66259675 32.75788879 30.42332458 C34.527732 32.19514964 36.29664468 33.96790479 38.06452942 35.74168396 C38.89060196 36.56168381 39.7166745 37.38168365 40.56777954 38.22653198 C50.04701694 47.82196214 50.04701694 47.82196214 51.38484192 54.40574646 C51.24990378 59.29050721 50.69909245 62.797278 47.88874817 66.96434021 C43.3706811 71.14355225 39.51821011 72.494449 33.45324707 72.34484863 C25.0297374 71.09500744 18.09936543 62.61580884 12.40046692 56.87449646 C11.53484634 56.01174606 10.66922577 55.14899567 9.77737427 54.26010132 C7.96112116 52.44587824 6.14860496 50.62790706 4.3396759 48.80638123 C1.57742231 46.0280212 -1.20052868 43.26608367 -3.98039246 40.50535583 C-5.75023566 38.73353078 -7.51914834 36.96077563 -9.28703308 35.18699646 C-10.11310562 34.36699661 -10.93917816 33.54699677 -11.7902832 32.70214844 C-21.26952061 23.10671828 -21.26952061 23.10671828 -22.60734558 16.52293396 C-22.47240744 11.63817321 -21.92159611 8.13140242 -19.11125183 3.96434021 C-13.80452176 -0.94438511 -6.87177606 -3.37090159 0 0 Z " fill="#6366F1" transform="translate(93.11125183105469,72.03565979003906)"/>
<path d="M0 0 C0.70310303 -0.00686325 1.40620605 -0.0137265 2.13061523 -0.02079773 C4.44478804 -0.0390341 6.75828082 -0.03523295 9.07250977 -0.02954102 C10.68767008 -0.03410446 12.30282845 -0.03941052 13.91798401 -0.04542542 C17.29973244 -0.05435035 20.68124465 -0.05194065 24.06298828 -0.04199219 C28.3885116 -0.0305049 32.71321825 -0.05071279 37.0386343 -0.07990932 C40.37332811 -0.09828973 43.7078269 -0.09797522 47.04255867 -0.0922718 C48.63690397 -0.0921188 50.23126267 -0.09814555 51.82555962 -0.11056328 C54.05870079 -0.12550668 56.29034202 -0.11477378 58.5234375 -0.09765625 C60.4260862 -0.097407 60.4260862 -0.097407 62.36717224 -0.09715271 C67.40093292 0.63218249 70.5759034 2.7939847 73.67407227 6.78295898 C75.76210283 11.53234376 75.44562559 16.32653425 74.82641602 21.40405273 C72.64667127 26.00573608 70.35174781 28.18819144 65.82641602 30.40405273 C62.49415588 30.79173279 62.49415588 30.79173279 58.65283203 30.80810547 C57.949729 30.81496872 57.24662598 30.82183197 56.5222168 30.8289032 C54.20804399 30.84713956 51.89455121 30.84333842 49.58032227 30.83764648 C47.96516195 30.84220993 46.35000358 30.84751599 44.73484802 30.85353088 C41.35309959 30.86245582 37.97158738 30.86004612 34.58984375 30.85009766 C30.26432043 30.83861037 25.93961378 30.85881826 21.61419773 30.88801479 C18.27950392 30.9063952 14.94500514 30.90608069 11.61027336 30.90037727 C10.01592806 30.90022427 8.42156936 30.90625101 6.82727242 30.91866875 C4.59413125 30.93361215 2.36249001 30.92287925 0.12939453 30.90576172 C-1.13903793 30.90559555 -2.4074704 30.90542938 -3.71434021 30.90525818 C-8.74810088 30.17592298 -11.92307137 28.01412077 -15.02124023 24.02514648 C-17.1092708 19.27576171 -16.79279356 14.48157122 -16.17358398 9.40405273 C-12.66624192 1.99966394 -7.92673608 0.03378573 0 0 Z " fill="#6366F1" transform="translate(437.173583984375,240.595947265625)"/>
<path d="M0 0 C0.70310303 -0.00686325 1.40620605 -0.0137265 2.13061523 -0.02079773 C4.44478804 -0.0390341 6.75828082 -0.03523295 9.07250977 -0.02954102 C10.68767008 -0.03410446 12.30282845 -0.03941052 13.91798401 -0.04542542 C17.29973244 -0.05435035 20.68124465 -0.05194065 24.06298828 -0.04199219 C28.3885116 -0.0305049 32.71321825 -0.05071279 37.0386343 -0.07990932 C40.37332811 -0.09828973 43.7078269 -0.09797522 47.04255867 -0.0922718 C48.63690397 -0.0921188 50.23126267 -0.09814555 51.82555962 -0.11056328 C54.05870079 -0.12550668 56.29034202 -0.11477378 58.5234375 -0.09765625 C60.4260862 -0.097407 60.4260862 -0.097407 62.36717224 -0.09715271 C67.40093292 0.63218249 70.5759034 2.7939847 73.67407227 6.78295898 C75.76210283 11.53234376 75.44562559 16.32653425 74.82641602 21.40405273 C72.64667127 26.00573608 70.35174781 28.18819144 65.82641602 30.40405273 C62.49415588 30.79173279 62.49415588 30.79173279 58.65283203 30.80810547 C57.949729 30.81496872 57.24662598 30.82183197 56.5222168 30.8289032 C54.20804399 30.84713956 51.89455121 30.84333842 49.58032227 30.83764648 C47.96516195 30.84220993 46.35000358 30.84751599 44.73484802 30.85353088 C41.35309959 30.86245582 37.97158738 30.86004612 34.58984375 30.85009766 C30.26432043 30.83861037 25.93961378 30.85881826 21.61419773 30.88801479 C18.27950392 30.9063952 14.94500514 30.90608069 11.61027336 30.90037727 C10.01592806 30.90022427 8.42156936 30.90625101 6.82727242 30.91866875 C4.59413125 30.93361215 2.36249001 30.92287925 0.12939453 30.90576172 C-1.13903793 30.90559555 -2.4074704 30.90542938 -3.71434021 30.90525818 C-8.74810088 30.17592298 -11.92307137 28.01412077 -15.02124023 24.02514648 C-17.1092708 19.27576171 -16.79279356 14.48157122 -16.17358398 9.40405273 C-12.66624192 1.99966394 -7.92673608 0.03378573 0 0 Z " fill="#6366F1" transform="translate(16.173583984375,240.595947265625)"/>
<path d="M0 0 C4.60168335 2.17974474 6.78413871 4.4746682 9 9 C9.38768005 12.33226013 9.38768005 12.33226013 9.40405273 16.17358398 C9.41091599 16.87668701 9.41777924 17.57979004 9.42485046 18.30419922 C9.44308683 20.61837202 9.43928568 22.93186481 9.43359375 25.24609375 C9.43815719 26.86125406 9.44346325 28.47641243 9.44947815 30.09156799 C9.45840309 33.47331643 9.45599338 36.85482863 9.44604492 40.23657227 C9.43455763 44.56209558 9.45476553 48.88680223 9.48396206 53.21221828 C9.50234246 56.5469121 9.50202795 59.88141088 9.49632454 63.21614265 C9.49617154 64.81048795 9.50219828 66.40484665 9.51461601 67.9991436 C9.52955941 70.23228477 9.51882651 72.46392601 9.50170898 74.69702148 C9.50154282 75.96545395 9.50137665 77.23388641 9.50120544 78.54075623 C8.77187024 83.5745169 6.61006804 86.74948739 2.62109375 89.84765625 C-2.12829103 91.93568681 -6.92248151 91.61920957 -12 91 C-16.60168335 88.82025526 -18.78413871 86.5253318 -21 82 C-21.38768005 78.66773987 -21.38768005 78.66773987 -21.40405273 74.82641602 C-21.41091599 74.12331299 -21.41777924 73.42020996 -21.42485046 72.69580078 C-21.44308683 70.38162798 -21.43928568 68.06813519 -21.43359375 65.75390625 C-21.43815719 64.13874594 -21.44346325 62.52358757 -21.44947815 60.90843201 C-21.45840309 57.52668357 -21.45599338 54.14517137 -21.44604492 50.76342773 C-21.43455763 46.43790442 -21.45476553 42.11319777 -21.48396206 37.78778172 C-21.50234246 34.4530879 -21.50202795 31.11858912 -21.49632454 27.78385735 C-21.49617154 26.18951205 -21.50219828 24.59515335 -21.51461601 23.0008564 C-21.52955941 20.76771523 -21.51882651 18.53607399 -21.50170898 16.30297852 C-21.50154282 15.03454605 -21.50137665 13.76611359 -21.50120544 12.45924377 C-20.77187024 7.4254831 -18.61006804 4.25051261 -14.62109375 1.15234375 C-9.87170897 -0.93568681 -5.07751849 -0.61920957 0 0 Z " fill="#6366F1" transform="translate(262,0)"/>
</svg>
