<?xml version="1.0" standalone="no"?>
<!DOCTYPE svg PUBLIC "-//W3C//DTD SVG 20010904//EN"
 "http://www.w3.org/TR/2001/REC-SVG-20010904/DTD/svg10.dtd">
<svg version="1.0" xmlns="http://www.w3.org/2000/svg"
 width="512.000000pt" height="512.000000pt" viewBox="0 0 512.000000 512.000000"
 preserveAspectRatio="xMidYMid meet">

<g transform="translate(0.000000,512.000000) scale(0.100000,-0.100000)"
fill="#4F46E5" stroke="none">
<path d="M331 4049 c-57 -11 -122 -50 -160 -96 -64 -78 -61 0 -61 -1393 0
-1404 -4 -1317 66 -1398 19 -23 60 -53 92 -69 l57 -28 2235 0 2235 0 57 28
c32 16 73 46 92 69 70 81 66 -6 66 1398 0 1404 4 1317 -66 1398 -19 23 -60 53
-92 69 l-57 28 -2210 1 c-1215 1 -2230 -2 -2254 -7z m4424 -1489 l0 -1245
-2195 0 -2195 0 -3 1235 c-1 679 0 1241 3 1248 3 10 448 12 2197 10 l2193 -3
0 -1245z"/>
<path d="M920 3341 c-42 -22 -80 -83 -80 -131 0 -47 29 -100 71 -128 28 -20
43 -23 92 -20 50 4 63 9 93 40 125 124 -21 322 -176 239z"/>
<path d="M1550 3342 c-139 -69 -86 -282 70 -282 86 0 150 65 150 151 0 82 -68
149 -150 149 -19 0 -51 -8 -70 -18z"/>
<path d="M2170 3338 c-77 -53 -97 -136 -52 -210 61 -98 216 -88 263 16 24 53
24 80 -1 131 -38 78 -142 109 -210 63z"/>
<path d="M2800 3341 c-42 -22 -80 -83 -80 -131 0 -47 29 -100 71 -128 28 -20
43 -23 92 -20 50 4 63 9 93 40 125 124 -21 322 -176 239z"/>
<path d="M3430 3342 c-139 -69 -86 -282 70 -282 86 0 150 65 150 151 0 82 -68
149 -150 149 -19 0 -51 -8 -70 -18z"/>
<path d="M4055 3341 c-93 -57 -107 -164 -31 -239 30 -31 43 -36 93 -40 49 -3
64 0 92 20 69 47 89 131 48 202 -40 70 -137 98 -202 57z"/>
<path d="M1231 2688 c-55 -37 -73 -69 -73 -128 0 -188 278 -202 299 -16 10 88
-49 156 -141 164 -41 3 -57 -1 -85 -20z"/>
<path d="M1862 2693 c-97 -48 -108 -192 -19 -255 46 -33 123 -36 166 -6 55 37
73 69 73 128 0 113 -117 184 -220 133z"/>
<path d="M2482 2690 c-130 -79 -74 -280 78 -280 85 0 150 65 150 150 0 85 -65
150 -150 150 -27 0 -58 -8 -78 -20z"/>
<path d="M3110 2688 c-54 -37 -74 -72 -74 -128 0 -113 122 -185 224 -132 38
20 80 89 80 132 0 43 -42 112 -80 132 -48 25 -109 23 -150 -4z"/>
<path d="M3742 2693 c-74 -36 -103 -134 -60 -207 78 -133 280 -80 280 74 0
113 -117 184 -220 133z"/>
<path d="M1387 1996 c-36 -36 -48 -69 -39 -112 2 -14 20 -41 39 -60 l34 -34
1139 0 1139 0 34 34 c56 56 56 116 0 172 l-34 34 -1139 0 -1139 0 -34 -34z"/>
</g>
</svg>
