<?xml version="1.0" standalone="no"?>
<!DOCTYPE svg PUBLIC "-//W3C//DTD SVG 20010904//EN"
 "http://www.w3.org/TR/2001/REC-SVG-20010904/DTD/svg10.dtd">
<svg version="1.0" xmlns="http://www.w3.org/2000/svg"
 width="512.000000pt" height="512.000000pt" viewBox="0 0 512.000000 512.000000"
 preserveAspectRatio="xMidYMid meet">

<g transform="translate(0.000000,512.000000) scale(0.100000,-0.100000)"
fill="#4F46E5" stroke="none">
<path d="M765 4033 c-164 -86 -166 -300 -3 -384 36 -18 85 -19 1795 -19 1690
0 1760 1 1798 19 164 76 166 298 3 382 -36 18 -85 19 -1800 19 -1586 -1 -1766
-2 -1793 -17z"/>
<path d="M765 2753 c-164 -86 -166 -300 -3 -384 36 -18 74 -19 1155 -19 1067
0 1120 1 1158 19 164 76 166 298 3 382 -36 18 -74 19 -1160 19 -1003 -1 -1126
-2 -1153 -17z"/>
<path d="M765 1473 c-164 -86 -166 -300 -3 -384 37 -19 77 -19 1596 -17 l1559
3 39 27 c21 15 50 44 64 65 21 31 25 48 25 113 0 65 -4 82 -25 113 -14 21 -43
50 -64 65 l-39 27 -1561 2 c-1408 2 -1564 1 -1591 -14z"/>
</g>
</svg>
