<?xml version="1.0" standalone="no"?>
<!DOCTYPE svg PUBLIC "-//W3C//DTD SVG 20010904//EN"
 "http://www.w3.org/TR/2001/REC-SVG-20010904/DTD/svg10.dtd">
<svg version="1.0" xmlns="http://www.w3.org/2000/svg"
 width="512.000000pt" height="512.000000pt" viewBox="0 0 512.000000 512.000000"
 preserveAspectRatio="xMidYMid meet">

<g transform="translate(0.000000,512.000000) scale(0.100000,-0.100000)"
fill="#1D4ED8" stroke="none">
<path d="M1835 4677 c-41 -19 -95 -74 -111 -114 -10 -22 -14 -76 -14 -163 l0
-130 -648 0 c-737 0 -720 2 -789 -73 -83 -90 -78 -216 13 -295 31 -28 61 -44
95 -51 34 -8 401 -11 1129 -11 650 0 1080 -4 1080 -9 0 -5 -24 -69 -54 -143
-98 -244 -226 -478 -376 -688 -81 -113 -230 -299 -240 -299 -22 1 -260 316
-351 465 -35 58 -77 127 -94 152 -87 134 -269 121 -336 -23 -28 -60 -24 -103
17 -184 50 -101 237 -377 338 -501 47 -58 98 -120 113 -139 l27 -33 -487 -482
c-518 -513 -507 -499 -507 -594 0 -70 51 -146 122 -183 46 -24 137 -25 181 -3
18 9 245 228 504 487 l473 471 237 -236 c246 -244 265 -258 343 -258 149 0
252 160 191 296 -12 27 -96 117 -250 269 -127 125 -231 231 -231 234 0 3 42
56 93 117 288 347 530 777 666 1187 l33 97 227 0 c226 0 227 0 280 26 129 65
156 232 54 336 -67 69 -57 68 -784 68 l-648 0 -3 143 c-3 138 -4 145 -30 183
-44 63 -90 88 -167 91 -41 2 -78 -2 -96 -10z"/>
<path d="M3667 2980 c-82 -21 -168 -84 -201 -148 -7 -15 -194 -509 -415 -1098
-277 -739 -401 -1084 -401 -1111 0 -51 36 -120 83 -157 74 -59 212 -42 268 34
13 17 69 151 124 298 l101 267 505 3 506 2 93 -247 c51 -137 100 -261 108
-278 68 -140 258 -155 347 -27 60 87 78 29 -374 1236 -385 1024 -407 1080
-448 1127 -74 81 -198 123 -296 99z m247 -1045 l164 -440 -341 -3 c-187 -1
-342 -1 -344 2 -3 2 266 731 333 900 10 25 -10 73 188 -459z"/>
</g>
</svg>
